<mxfile host="app.diagrams.net" modified="2024-01-15T21:33:40.483Z" agent="Mozilla/5.0 (Windows NT 10.0; Win64; x64) AppleWebKit/537.36 (KHTML, like Gecko) Chrome/120.0.0.0 Safari/537.36" etag="f0xuQdl9ZAZVDU7Ve1s4" version="22.1.18" type="device">
  <diagram id="Nr_cTfE3bY0O93JpznbJ" name="Página-1">
    <mxGraphModel dx="1544" dy="736" grid="1" gridSize="10" guides="1" tooltips="1" connect="1" arrows="1" fold="1" page="1" pageScale="1" pageWidth="827" pageHeight="1169" math="0" shadow="0">
      <root>
        <mxCell id="0" />
        <mxCell id="1" parent="0" />
        <mxCell id="uXhCAEyNwn5yPugij-_r-22" value="Vectorización&lt;br&gt;habilidad modelo All-Mini" style="rounded=0;whiteSpace=wrap;html=1;fontSize=16;fillColor=#ffe6cc;strokeColor=#d79b00;" parent="1" vertex="1">
          <mxGeometry x="65" y="340" width="120" height="59" as="geometry" />
        </mxCell>
        <mxCell id="uXhCAEyNwn5yPugij-_r-43" value="" style="endArrow=classic;html=1;rounded=0;fontSize=12;startSize=8;endSize=8;curved=1;exitX=0.5;exitY=1;exitDx=0;exitDy=0;entryX=0.5;entryY=0;entryDx=0;entryDy=0;" parent="1" source="uXhCAEyNwn5yPugij-_r-22" target="uXhCAEyNwn5yPugij-_r-44" edge="1">
          <mxGeometry width="50" height="50" relative="1" as="geometry">
            <mxPoint x="125" y="290" as="sourcePoint" />
            <mxPoint x="125" y="440" as="targetPoint" />
          </mxGeometry>
        </mxCell>
        <mxCell id="uXhCAEyNwn5yPugij-_r-44" value="Obtención similitud coseno" style="rounded=0;whiteSpace=wrap;html=1;fontSize=16;fillColor=#ffe6cc;strokeColor=#d79b00;" parent="1" vertex="1">
          <mxGeometry x="65" y="453" width="120" height="50" as="geometry" />
        </mxCell>
        <mxCell id="uXhCAEyNwn5yPugij-_r-46" value="Obtención información habilidad ESCO" style="rounded=0;whiteSpace=wrap;html=1;fontSize=16;fillColor=#ffe6cc;strokeColor=#d79b00;" parent="1" vertex="1">
          <mxGeometry x="65" y="560" width="120" height="80" as="geometry" />
        </mxCell>
        <mxCell id="uXhCAEyNwn5yPugij-_r-48" value="" style="endArrow=classic;html=1;rounded=0;fontSize=12;startSize=8;endSize=8;curved=1;exitX=0.5;exitY=1;exitDx=0;exitDy=0;entryX=0.5;entryY=0;entryDx=0;entryDy=0;" parent="1" source="uXhCAEyNwn5yPugij-_r-44" target="uXhCAEyNwn5yPugij-_r-46" edge="1">
          <mxGeometry width="50" height="50" relative="1" as="geometry">
            <mxPoint x="135" y="392" as="sourcePoint" />
            <mxPoint x="125" y="553" as="targetPoint" />
          </mxGeometry>
        </mxCell>
        <mxCell id="uXhCAEyNwn5yPugij-_r-64" value="Mapeo Habilidad ESCO" style="ellipse;whiteSpace=wrap;html=1;fontSize=16;fillColor=#f8cecc;strokeColor=#b85450;" parent="1" vertex="1">
          <mxGeometry x="48.379999999999995" y="690" width="153.25" height="53" as="geometry" />
        </mxCell>
        <mxCell id="uXhCAEyNwn5yPugij-_r-65" value="" style="endArrow=classic;html=1;rounded=0;fontSize=12;startSize=8;endSize=8;curved=0;exitX=0.5;exitY=1;exitDx=0;exitDy=0;entryX=0.5;entryY=0;entryDx=0;entryDy=0;" parent="1" source="uXhCAEyNwn5yPugij-_r-46" target="uXhCAEyNwn5yPugij-_r-64" edge="1">
          <mxGeometry width="50" height="50" relative="1" as="geometry">
            <mxPoint x="135.25" y="380" as="sourcePoint" />
            <mxPoint x="135.25" y="430" as="targetPoint" />
            <Array as="points" />
          </mxGeometry>
        </mxCell>
        <mxCell id="uXhCAEyNwn5yPugij-_r-66" value="Dataset ESCO" style="ellipse;whiteSpace=wrap;html=1;fontSize=16;fillColor=#f8cecc;strokeColor=#b85450;" parent="1" vertex="1">
          <mxGeometry x="65" y="160" width="120" height="40" as="geometry" />
        </mxCell>
        <mxCell id="uXhCAEyNwn5yPugij-_r-67" value="" style="endArrow=classic;html=1;rounded=0;fontSize=12;startSize=8;endSize=8;curved=1;exitX=0.5;exitY=1;exitDx=0;exitDy=0;entryX=0.5;entryY=0;entryDx=0;entryDy=0;" parent="1" source="uXhCAEyNwn5yPugij-_r-66" target="uXhCAEyNwn5yPugij-_r-68" edge="1">
          <mxGeometry width="50" height="50" relative="1" as="geometry">
            <mxPoint x="135" y="409" as="sourcePoint" />
            <mxPoint x="135" y="450" as="targetPoint" />
          </mxGeometry>
        </mxCell>
        <mxCell id="uXhCAEyNwn5yPugij-_r-68" value="Vectorización etiquetas ESCO" style="rounded=0;whiteSpace=wrap;html=1;fontSize=16;fillColor=#ffe6cc;strokeColor=#d79b00;" parent="1" vertex="1">
          <mxGeometry x="65" y="240" width="120" height="59" as="geometry" />
        </mxCell>
        <mxCell id="uXhCAEyNwn5yPugij-_r-69" value="" style="endArrow=classic;html=1;rounded=0;fontSize=12;startSize=8;endSize=8;curved=1;exitX=0.5;exitY=1;exitDx=0;exitDy=0;entryX=0.5;entryY=0;entryDx=0;entryDy=0;" parent="1" source="uXhCAEyNwn5yPugij-_r-68" target="uXhCAEyNwn5yPugij-_r-22" edge="1">
          <mxGeometry width="50" height="50" relative="1" as="geometry">
            <mxPoint x="135" y="409" as="sourcePoint" />
            <mxPoint x="130" y="340" as="targetPoint" />
          </mxGeometry>
        </mxCell>
      </root>
    </mxGraphModel>
  </diagram>
</mxfile>
